<?xml version="1.0" encoding="UTF-8" standalone="no"?>
<svg
    xmlns="http://www.w3.org/2000/svg"
    version="1.1"
    width="1000"
    height="1100"
    viewBox="0 0 1000 1100"
    aria-label="Χάρτης Νομών Ελλάδας"
    role="img">

  <title>Χάρτης Νομών Ελλάδας</title>

  <!-- Παράδειγμα για νομους, μπορείς να προσθέσεις όλους εδώ -->

  <!-- Αττικής -->
  <path id="attikis" data-name="Αττικής" fill="#7c7f59" stroke="#555" stroke-width="1"
    d="M520,700 L560,680 L590,720 L570,740 L530,730 Z" />

  <!-- Θεσσαλονίκης -->
  <path id="thessalonikis" data-name="Θεσσαλονίκης" fill="#a3a773" stroke="#555" stroke-width="1"
    d="M650,600 L690,620 L680,660 L640,650 Z" />

  <!-- Πειραιάς (παράδειγμα) -->
  <path id="peiraios" data-name="Πειραιάς" fill="#9ca763" stroke="#555" stroke-width="1"
    d="M530,720 L545,710 L550,730 L535,740 Z" />

  <!-- Πιερίας -->
  <path id="pierias" data-name="Πιερίας" fill="#b0b66e" stroke="#555" stroke-width="1"
    d="M600,600 L630,610 L620,650 L590,640 Z" />

  <!-- Καρδίτσας -->
  <path id="karditsas" data-name="Καρδίτσας" fill="#8b8e50" stroke="#555" stroke-width="1"
    d="M580,660 L610,670 L600,700 L570,690 Z" />

  <!-- Ιωαννίνων -->
  <path id="ioanninon" data-name="Ιωαννίνων" fill="#788153" stroke="#555" stroke-width="1"
    d="M490,600 L520,620 L510,660 L480,650 Z" />

  <!-- Άρτας -->
  <path id="artas" data-name="Άρτας" fill="#92a168" stroke="#555" stroke-width="1"
    d="M480,640 L510,650 L500,680 L470,670 Z" />

  <!-- Χανίων -->
  <path id="chanion" data-name="Χανίων" fill="#718347" stroke="#555" stroke-width="1"
    d="M300,850 L350,840 L340,880 L290,870 Z" />

  <!-- Ηρακλείου -->
  <path id="irakleiou" data-name="Ηρακλείου" fill="#9aae7d" stroke="#555" stroke-width="1"
    d="M350,880 L390,880 L385,920 L340,900 Z" />

  <!-- Ρεθύμνης -->
  <path id="rethymnis" data-name="Ρεθύμνης" fill="#869b6d" stroke="#555" stroke-width="1"
    d="M320,870 L360,865 L350,900 L310,890 Z" />

  <!-- ... συνέχισε με τους υπόλοιπους νομούς -->

</svg>
