<?xml version="1.0" encoding="UTF-8" standalone="no"?>
<svg xmlns="http://www.w3.org/2000/svg"
     width="1000"
     height="1100"
     viewBox="0 0 1000 1100"
     xmlns:xlink="http://www.w3.org/1999/xlink">
  <style><![CDATA[
    .region {
      fill: #d9d5c4;
      stroke: #333;
      stroke-width: 1;
      cursor: pointer;
      transition: fill 0.3s;
    }
    .region:hover {
      fill: #ffcc00;
    }
  ]]></style>

    <g id="attikis" data-name="Αττικής">
    <path fill="#d9d5c4" d="M395,470 L410,470 L410,485 L395,485 Z"/>
  </g>
  <g id="evoias" data-name="Εύβοιας">
    <path fill="#d9d5c4" d="M430,460 L445,460 L445,475 L430,475 Z"/>
  </g>
  <g id="voiotias" data-name="Βοιωτίας">
    <path fill="#d9d5c4" d="M410,490 L425,490 L425,505 L410,505 Z"/>
  </g>
  <g id="fthiotidas" data-name="Φθιώτιδας">
    <path fill="#d9d5c4" d="M440,500 L455,500 L455,515 L440,515 Z"/>
  </g>
  <g id="fokidas" data-name="Φωκίδας">
    <path fill="#d9d5c4" d="M400,510 L415,510 L415,525 L400,525 Z"/>
  </g>

        <g id="central-macedonia" data-name="Κεντρικής Μακεδονίας">
    <path fill="#d9d5c4" d="M420,100 L440,100 L440,120 L420,120 Z"/>
  </g>

  <g id="eastern-macedonia-thrace" data-name="Ανατολικής Μακεδονίας και Θράκης">
    <path fill="#d9d5c4" d="M450,80 L470,80 L470,100 L450,100 Z"/>
  </g>

  <g id="epirus" data-name="Ηπείρου">
    <path fill="#d9d5c4" d="M360,180 L380,180 L380,200 L360,200 Z"/>
  </g>

  <g id="thessaly" data-name="Θεσσαλίας">
    <path fill="#d9d5c4" d="M400,180 L420,180 L420,200 L400,200 Z"/>
  </g>

  <g id="ionian-islands" data-name="Ιονίων Νήσων">
    <path fill="#d9d5c4" d="M340,250 L360,250 L360,270 L340,270 Z"/>
  </g>

        <g id="western-macedonia" data-name="Δυτικής Μακεδονίας">
    <path fill="#d9d5c4" d="M380,140 L400,140 L400,160 L380,160 Z"/>
  </g>

  <g id="western-greece" data-name="Δυτικής Ελλάδας">
    <path fill="#d9d5c4" d="M360,220 L380,220 L380,240 L360,240 Z"/>
  </g>

  <g id="central-greece" data-name="Στερεάς Ελλάδας">
    <path fill="#d9d5c4" d="M400,220 L420,220 L420,240 L400,240 Z"/>
  </g>

  <g id="peloponnese" data-name="Πελοποννήσου">
    <path fill="#d9d5c4" d="M380,280 L400,280 L400,300 L380,300 Z"/>
  </g>

  <g id="attica" data-name="Αττικής">
    <path fill="#d9d5c4" d="M430,240 L450,240 L450,260 L430,260 Z"/>
  </g>

        <g id="crete" data-name="Κρήτη">
    <path fill="#d9d5c4" d="M420,340 L480,340 L480,360 L420,360 Z"/>
  </g>

  <g id="rhodes" data-name="Ροδος">
    <path fill="#d9d5c4" d="M520,320 L540,320 L540,340 L520,340 Z"/>
  </g>

  <g id="lesvos" data-name="Λεσβου">
    <path fill="#d9d5c4" d="M500,200 L520,200 L520,220 L500,220 Z"/>
  </g>

  <g id="chios" data-name="Χιου">
    <path fill="#d9d5c4" d="M510,220 L530,220 L530,240 L510,240 Z"/>
  </g>

  <g id="samos" data-name="Σαμου">
    <path fill="#d9d5c4" d="M520,240 L540,240 L540,260 L520,260 Z"/>
  </g>

  <g id="cyclades" data-name="Κυκλαδες">
    <path fill="#d9d5c4" d="M460,280 L480,280 L480,300 L460,300 Z"/>
  </g>

  <g id="dodekanisa" data-name="Δωδεκανησα">
    <path fill="#d9d5c4" d="M500,300 L520,300 L520,320 L500,320 Z"/>
  </g>

  <g id="ionian-islands" data-name="Ιονια">
    <path fill="#d9d5c4" d="M300,240 L320,240 L320,260 L300,260 Z"/>
  </g>

  <g id="evia" data-name="Ευβοιας">
    <path fill="#d9d5c4" d="M440,200 L460,200 L460,220 L440,220 Z"/>
  </g>

  <g id="thasos" data-name="Θασος">
    <path fill="#d9d5c4" d="M520,160 L540,160 L540,180 L520,180 Z"/>
  </g>

  <g id="samothraki" data-name="Σαμοθρακη">
    <path fill="#d9d5c4" d="M540,140 L560,140 L560,160 L540,160 Z"/>
  </g>

        <g id="skiathos" data-name="Σκιαθος">
    <path fill="#d9d5c4" d="M460,160 L470,160 L470,170 L460,170 Z"/>
  </g>

  <g id="skopelos" data-name="Σκοπελος">
    <path fill="#d9d5c4" d="M470,170 L480,170 L480,180 L470,180 Z"/>
  </g>

  <g id="alonissos" data-name="Αλοννησος">
    <path fill="#d9d5c4" d="M480,180 L490,180 L490,190 L480,190 Z"/>
  </g>

  <g id="skyros" data-name="Σκυρος">
    <path fill="#d9d5c4" d="M500,190 L510,190 L510,200 L500,200 Z"/>
  </g>

  <g id="kythira" data-name="Κυθηρα">
    <path fill="#d9d5c4" d="M400,360 L410,360 L410,370 L400,370 Z"/>
  </g>

  <g id="paxoi" data-name="Παξοι">
    <path fill="#d9d5c4" d="M300,220 L310,220 L310,230 L300,230 Z"/>
  </g>

  <g id="ithaki" data-name="Ιθακης">
    <path fill="#d9d5c4" d="M310,230 L320,230 L320,240 L310,240 Z"/>
  </g>

  <g id="kastellorizo" data-name="Καστελλοριζο">
    <path fill="#d9d5c4" d="M550,330 L560,330 L560,340 L550,340 Z"/>
  </g>

  <g id="astypalaia" data-name="Αστυπαλαια">
    <path fill="#d9d5c4" d="M520,310 L530,310 L530,320 L520,320 Z"/>
  </g>

  <g id="patmos" data-name="Πατμος">
    <path fill="#d9d5c4" d="M510,300 L520,300 L520,310 L510,310 Z"/>
  </g>

        <g id="thasos" data-name="Θασος">
    <path fill="#d9d5c4" d="M580,120 L590,120 L590,130 L580,130 Z"/>
  </g>

  <g id="loipa-ionia-nisia" data-name="Λοιπα ιονια νησια">
    <path fill="#d9d5c4" d="M280,250 L290,250 L290,260 L280,260 Z"/>
  </g>

  <g id="loipa-kyklades" data-name="Λοιπα νηςια Κυκλαδων">
    <path fill="#d9d5c4" d="M450,290 L460,290 L460,300 L450,300 Z"/>
  </g>

  <g id="loipa-dodekanisa" data-name="Λοιπα νησια Δωδεκανησων">
    <path fill="#d9d5c4" d="M540,310 L550,310 L550,320 L540,320 Z"/>
  </g>

  <g id="athens-outline" data-name="Αττικης">
    <path fill="#d9d5c4" d="M410,210 L420,210 L420,220 L410,220 Z"/>
  </g>

  <g id="crete-outline" data-name="Κρητη">
    <path fill="#d9d5c4" d="M390,390 L500,390 L500,400 L390,400 Z"/>
  </g>

  <g id="dodekanisa-outline" data-name="Δωδεκανησα">
    <path fill="#d9d5c4" d="M510,290 L520,290 L520,300 L510,300 Z"/>
  </g>

  <g id="northern-greece" data-name="Βορεια Ελλαδα">
    <path fill="#d9d5c4" d="M430,130 L440,130 L440,140 L430,140 Z"/>
  </g>

        </g>
</svg>
